<svg xmlns="http://www.w3.org/2000/svg" width="750" height="345" viewBox="0 0 1500 690" role="img" style="font-family:-apple-system,BlinkMacSystemFont,Segoe UI,sans-serif">
<title>ROC and Precision-Recall curves for a mock fraud classifier</title>
<desc>Two plots generated from deterministic mock classification scores. The ROC curve plots true positive rate against false positive rate. The Precision-Recall curve plots precision against recall.</desc>
<rect width="1500" height="690" fill="#0f151c"/>
<text x="55" y="48" fill="#f5f7fa" font-size="28" font-weight="750" text-anchor="start" >Threshold curves from mock fraud scores</text>
<text x="55" y="77" fill="#9eacbb" font-size="15" font-weight="400" text-anchor="start" >Positive class: fraud  |  80 fraud and 920 legitimate transactions  |  each curve point uses a different score threshold</text>
<rect x="45" y="105" width="675" height="535" rx="8" fill="#151d26" stroke="#2b3948"/>
<text x="73" y="145" fill="#f4f7fa" font-size="23" font-weight="700" text-anchor="start" >ROC curve</text>
<text x="692" y="145" fill="#2dd4bf" font-size="19" font-weight="700" text-anchor="end" >AUROC  0.959</text>
<line x1="117.0" y1="180" x2="117.0" y2="545" stroke="#263341"/>
<line x1="117" y1="545.0" x2="682" y2="545.0" stroke="#263341"/>
<text x="117.0" y="570" fill="#bac7d5" font-size="12" font-weight="400" text-anchor="middle" >0</text>
<text x="105" y="549.0" fill="#bac7d5" font-size="12" font-weight="400" text-anchor="end" >0</text>
<line x1="258.25" y1="180" x2="258.25" y2="545" stroke="#263341"/>
<line x1="117" y1="453.75" x2="682" y2="453.75" stroke="#263341"/>
<text x="258.25" y="570" fill="#bac7d5" font-size="12" font-weight="400" text-anchor="middle" >0.25</text>
<text x="105" y="457.75" fill="#bac7d5" font-size="12" font-weight="400" text-anchor="end" >0.25</text>
<line x1="399.5" y1="180" x2="399.5" y2="545" stroke="#263341"/>
<line x1="117" y1="362.5" x2="682" y2="362.5" stroke="#263341"/>
<text x="399.5" y="570" fill="#bac7d5" font-size="12" font-weight="400" text-anchor="middle" >0.5</text>
<text x="105" y="366.5" fill="#bac7d5" font-size="12" font-weight="400" text-anchor="end" >0.5</text>
<line x1="540.75" y1="180" x2="540.75" y2="545" stroke="#263341"/>
<line x1="117" y1="271.25" x2="682" y2="271.25" stroke="#263341"/>
<text x="540.75" y="570" fill="#bac7d5" font-size="12" font-weight="400" text-anchor="middle" >0.75</text>
<text x="105" y="275.25" fill="#bac7d5" font-size="12" font-weight="400" text-anchor="end" >0.75</text>
<line x1="682.0" y1="180" x2="682.0" y2="545" stroke="#263341"/>
<line x1="117" y1="180.0" x2="682" y2="180.0" stroke="#263341"/>
<text x="682.0" y="570" fill="#bac7d5" font-size="12" font-weight="400" text-anchor="middle" >1</text>
<text x="105" y="184.0" fill="#bac7d5" font-size="12" font-weight="400" text-anchor="end" >1</text>
<line x1="117" y1="545" x2="682" y2="545" stroke="#8695a6"/>
<line x1="117" y1="180" x2="117" y2="545" stroke="#8695a6"/>
<line x1="117" y1="545" x2="682" y2="180" stroke="#7b8794" stroke-width="2" stroke-dasharray="7 7"/>
<path d="M117.00,545.00 L117.00,499.38 L117.00,494.81 L117.00,490.25 L117.00,485.69 L117.61,485.69 L117.61,481.12 L117.61,476.56 L117.61,472.00 L117.61,467.44 L117.61,462.88 L117.61,458.31 L117.61,453.75 L117.61,449.19 L117.61,444.62 L117.61,440.06 L117.61,435.50 L118.23,435.50 L118.84,435.50 L118.84,430.94 L118.84,426.38 L118.84,421.81 L118.84,417.25 L118.84,412.69 L118.84,408.12 L118.84,403.56 L118.84,399.00 L118.84,394.44 L118.84,389.88 L118.84,385.31 L118.84,380.75 L118.84,376.19 L118.84,371.62 L119.46,371.62 L120.07,371.62 L120.07,367.06 L120.68,367.06 L120.68,362.50 L120.68,357.94 L121.30,357.94 L121.30,353.38 L121.91,353.38 L122.53,353.38 L122.53,348.81 L123.14,348.81 L123.14,344.25 L123.76,344.25 L124.37,344.25 L124.37,339.69 L124.98,339.69 L124.98,335.12 L124.98,330.56 L124.98,326.00 L125.60,326.00 L125.60,321.44 L125.60,316.88 L126.21,316.88 L126.21,312.31 L126.21,307.75 L126.21,303.19 L126.83,303.19 L127.44,303.19 L127.44,298.62 L128.05,298.62 L128.05,294.06 L128.67,294.06 L129.28,294.06 L129.90,294.06 L129.90,289.50 L130.51,289.50 L131.12,289.50 L131.74,289.50 L132.35,289.50 L132.97,289.50 L133.58,289.50 L133.58,284.94 L134.20,284.94 L134.20,280.38 L134.20,275.81 L134.81,275.81 L135.42,275.81 L136.04,275.81 L136.65,275.81 L137.27,275.81 L137.88,275.81 L138.49,275.81 L138.49,271.25 L139.11,271.25 L139.72,271.25 L139.72,266.69 L140.34,266.69 L140.34,262.12 L140.95,262.12 L141.57,262.12 L142.18,262.12 L142.79,262.12 L143.41,262.12 L143.41,257.56 L144.02,257.56 L144.64,257.56 L145.25,257.56 L145.86,257.56 L146.48,257.56 L147.09,257.56 L147.71,257.56 L148.32,257.56 L148.32,253.00 L148.93,253.00 L149.55,253.00 L150.16,253.00 L150.16,248.44 L150.78,248.44 L151.39,248.44 L152.01,248.44 L152.62,248.44 L153.23,248.44 L153.85,248.44 L154.46,248.44 L155.08,248.44 L155.69,248.44 L155.69,243.88 L156.30,243.88 L156.92,243.88 L157.53,243.88 L158.15,243.88 L158.76,243.88 L159.38,243.88 L159.99,243.88 L160.60,243.88 L161.22,243.88 L161.83,243.88 L162.45,243.88 L163.06,243.88 L163.06,239.31 L163.67,239.31 L163.67,234.75 L164.29,234.75 L164.90,234.75 L164.90,230.19 L165.52,230.19 L166.13,230.19 L166.74,230.19 L167.36,230.19 L167.97,230.19 L168.59,230.19 L169.20,230.19 L169.82,230.19 L169.82,225.62 L170.43,225.62 L171.04,225.62 L171.04,221.06 L171.66,221.06 L172.27,221.06 L172.89,221.06 L173.50,221.06 L174.11,221.06 L174.73,221.06 L175.34,221.06 L175.96,221.06 L176.57,221.06 L177.18,221.06 L177.80,221.06 L178.41,221.06 L179.03,221.06 L179.64,221.06 L180.26,221.06 L180.87,221.06 L181.48,221.06 L182.10,221.06 L182.71,221.06 L183.33,221.06 L183.94,221.06 L184.55,221.06 L185.17,221.06 L185.78,221.06 L186.40,221.06 L187.01,221.06 L187.62,221.06 L188.24,221.06 L188.85,221.06 L189.47,221.06 L190.08,221.06 L190.70,221.06 L191.31,221.06 L191.92,221.06 L192.54,221.06 L193.15,221.06 L193.15,216.50 L193.77,216.50 L194.38,216.50 L194.99,216.50 L195.61,216.50 L196.22,216.50 L196.84,216.50 L196.84,211.94 L197.45,211.94 L198.07,211.94 L198.68,211.94 L199.29,211.94 L199.91,211.94 L200.52,211.94 L201.14,211.94 L201.75,211.94 L202.36,211.94 L202.98,211.94 L203.59,211.94 L204.21,211.94 L204.82,211.94 L205.43,211.94 L206.05,211.94 L206.66,211.94 L207.28,211.94 L207.89,211.94 L208.51,211.94 L209.12,211.94 L209.73,211.94 L210.35,211.94 L210.96,211.94 L211.58,211.94 L212.19,211.94 L212.80,211.94 L213.42,211.94 L214.03,211.94 L214.65,211.94 L215.26,211.94 L215.88,211.94 L216.49,211.94 L217.10,211.94 L217.72,211.94 L218.33,211.94 L218.95,211.94 L219.56,211.94 L220.17,211.94 L220.79,211.94 L221.40,211.94 L222.02,211.94 L222.02,207.37 L222.63,207.37 L223.24,207.37 L223.86,207.37 L224.47,207.37 L225.09,207.37 L225.70,207.37 L226.32,207.37 L226.93,207.37 L227.54,207.37 L228.16,207.37 L228.77,207.37 L229.39,207.37 L230.00,207.37 L230.61,207.37 L231.23,207.37 L231.84,207.37 L232.46,207.37 L233.07,207.37 L233.07,202.81 L233.68,202.81 L234.30,202.81 L234.91,202.81 L235.53,202.81 L236.14,202.81 L236.76,202.81 L237.37,202.81 L237.98,202.81 L238.60,202.81 L239.21,202.81 L239.83,202.81 L240.44,202.81 L241.05,202.81 L241.67,202.81 L242.28,202.81 L242.90,202.81 L242.90,198.25 L242.90,193.69 L243.51,193.69 L244.12,193.69 L244.74,193.69 L245.35,193.69 L245.97,193.69 L246.58,193.69 L247.20,193.69 L247.81,193.69 L248.42,193.69 L249.04,193.69 L249.65,193.69 L250.27,193.69 L250.88,193.69 L251.49,193.69 L252.11,193.69 L252.72,193.69 L253.34,193.69 L253.95,193.69 L254.57,193.69 L255.18,193.69 L255.79,193.69 L256.41,193.69 L257.02,193.69 L257.64,193.69 L258.25,193.69 L258.86,193.69 L259.48,193.69 L260.09,193.69 L260.09,189.12 L260.71,189.12 L261.32,189.12 L261.93,189.12 L262.55,189.12 L263.16,189.12 L263.78,189.12 L264.39,189.12 L265.01,189.12 L265.62,189.12 L266.23,189.12 L266.85,189.12 L267.46,189.12 L268.08,189.12 L268.69,189.12 L269.30,189.12 L269.92,189.12 L270.53,189.12 L271.15,189.12 L271.76,189.12 L272.38,189.12 L272.99,189.12 L273.60,189.12 L274.22,189.12 L274.83,189.12 L275.45,189.12 L276.06,189.12 L276.67,189.12 L277.29,189.12 L277.90,189.12 L278.52,189.12 L279.13,189.12 L279.74,189.12 L280.36,189.12 L280.97,189.12 L281.59,189.12 L282.20,189.12 L282.82,189.12 L283.43,189.12 L284.04,189.12 L284.66,189.12 L285.27,189.12 L285.89,189.12 L286.50,189.12 L287.11,189.12 L287.73,189.12 L288.34,189.12 L288.96,189.12 L289.57,189.12 L290.18,189.12 L290.80,189.12 L291.41,189.12 L292.03,189.12 L292.64,189.12 L293.26,189.12 L293.87,189.12 L294.48,189.12 L295.10,189.12 L295.71,189.12 L296.33,189.12 L296.94,189.12 L297.55,189.12 L298.17,189.12 L298.78,189.12 L299.40,189.12 L300.01,189.12 L300.62,189.12 L301.24,189.12 L301.85,189.12 L302.47,189.12 L303.08,189.12 L303.70,189.12 L304.31,189.12 L304.92,189.12 L305.54,189.12 L306.15,189.12 L306.77,189.12 L307.38,189.12 L307.99,189.12 L308.61,189.12 L309.22,189.12 L309.84,189.12 L310.45,189.12 L311.07,189.12 L311.07,184.56 L311.68,184.56 L312.29,184.56 L312.91,184.56 L313.52,184.56 L314.14,184.56 L314.75,184.56 L315.36,184.56 L315.98,184.56 L316.59,184.56 L317.21,184.56 L317.82,184.56 L318.43,184.56 L319.05,184.56 L319.66,184.56 L320.28,184.56 L320.89,184.56 L321.51,184.56 L322.12,184.56 L322.73,184.56 L323.35,184.56 L323.96,184.56 L324.58,184.56 L325.19,184.56 L325.80,184.56 L326.42,184.56 L327.03,184.56 L327.65,184.56 L328.26,184.56 L328.88,184.56 L329.49,184.56 L330.10,184.56 L330.72,184.56 L331.33,184.56 L331.95,184.56 L332.56,184.56 L333.17,184.56 L333.79,184.56 L334.40,184.56 L335.02,184.56 L335.63,184.56 L336.24,184.56 L336.86,184.56 L337.47,184.56 L338.09,184.56 L338.70,184.56 L339.32,184.56 L339.93,184.56 L340.54,184.56 L341.16,184.56 L341.77,184.56 L342.39,184.56 L343.00,184.56 L343.61,184.56 L344.23,184.56 L344.84,184.56 L345.46,184.56 L346.07,184.56 L346.68,184.56 L347.30,184.56 L347.91,184.56 L348.53,184.56 L349.14,184.56 L349.76,184.56 L349.76,180.00 L350.37,180.00 L350.98,180.00 L351.60,180.00 L352.21,180.00 L352.83,180.00 L353.44,180.00 L354.05,180.00 L354.67,180.00 L355.28,180.00 L355.90,180.00 L356.51,180.00 L357.12,180.00 L357.74,180.00 L358.35,180.00 L358.97,180.00 L359.58,180.00 L360.20,180.00 L360.81,180.00 L361.42,180.00 L362.04,180.00 L362.65,180.00 L363.27,180.00 L363.88,180.00 L364.49,180.00 L365.11,180.00 L365.72,180.00 L366.34,180.00 L366.95,180.00 L367.57,180.00 L368.18,180.00 L368.79,180.00 L369.41,180.00 L370.02,180.00 L370.64,180.00 L371.25,180.00 L371.86,180.00 L372.48,180.00 L373.09,180.00 L373.71,180.00 L374.32,180.00 L374.93,180.00 L375.55,180.00 L376.16,180.00 L376.78,180.00 L377.39,180.00 L378.01,180.00 L378.62,180.00 L379.23,180.00 L379.85,180.00 L380.46,180.00 L381.08,180.00 L381.69,180.00 L382.30,180.00 L382.92,180.00 L383.53,180.00 L384.15,180.00 L384.76,180.00 L385.38,180.00 L385.99,180.00 L386.60,180.00 L387.22,180.00 L387.83,180.00 L388.45,180.00 L389.06,180.00 L389.67,180.00 L390.29,180.00 L390.90,180.00 L391.52,180.00 L392.13,180.00 L392.74,180.00 L393.36,180.00 L393.97,180.00 L394.59,180.00 L395.20,180.00 L395.82,180.00 L396.43,180.00 L397.04,180.00 L397.66,180.00 L398.27,180.00 L398.89,180.00 L399.50,180.00 L400.11,180.00 L400.73,180.00 L401.34,180.00 L401.96,180.00 L402.57,180.00 L403.18,180.00 L403.80,180.00 L404.41,180.00 L405.03,180.00 L405.64,180.00 L406.26,180.00 L406.87,180.00 L407.48,180.00 L408.10,180.00 L408.71,180.00 L409.33,180.00 L409.94,180.00 L410.55,180.00 L411.17,180.00 L411.78,180.00 L412.40,180.00 L413.01,180.00 L413.62,180.00 L414.24,180.00 L414.85,180.00 L415.47,180.00 L416.08,180.00 L416.70,180.00 L417.31,180.00 L417.92,180.00 L418.54,180.00 L419.15,180.00 L419.77,180.00 L420.38,180.00 L420.99,180.00 L421.61,180.00 L422.22,180.00 L422.84,180.00 L423.45,180.00 L424.07,180.00 L424.68,180.00 L425.29,180.00 L425.91,180.00 L426.52,180.00 L427.14,180.00 L427.75,180.00 L428.36,180.00 L428.98,180.00 L429.59,180.00 L430.21,180.00 L430.82,180.00 L431.43,180.00 L432.05,180.00 L432.66,180.00 L433.28,180.00 L433.89,180.00 L434.51,180.00 L435.12,180.00 L435.73,180.00 L436.35,180.00 L436.96,180.00 L437.58,180.00 L438.19,180.00 L438.80,180.00 L439.42,180.00 L440.03,180.00 L440.65,180.00 L441.26,180.00 L441.88,180.00 L442.49,180.00 L443.10,180.00 L443.72,180.00 L444.33,180.00 L444.95,180.00 L445.56,180.00 L446.17,180.00 L446.79,180.00 L447.40,180.00 L448.02,180.00 L448.63,180.00 L449.24,180.00 L449.86,180.00 L450.47,180.00 L451.09,180.00 L451.70,180.00 L452.32,180.00 L452.93,180.00 L453.54,180.00 L454.16,180.00 L454.77,180.00 L455.39,180.00 L456.00,180.00 L456.61,180.00 L457.23,180.00 L457.84,180.00 L458.46,180.00 L459.07,180.00 L459.68,180.00 L460.30,180.00 L460.91,180.00 L461.53,180.00 L462.14,180.00 L462.76,180.00 L463.37,180.00 L463.98,180.00 L464.60,180.00 L465.21,180.00 L465.83,180.00 L466.44,180.00 L467.05,180.00 L467.67,180.00 L468.28,180.00 L468.90,180.00 L469.51,180.00 L470.12,180.00 L470.74,180.00 L471.35,180.00 L471.97,180.00 L472.58,180.00 L473.20,180.00 L473.81,180.00 L474.42,180.00 L475.04,180.00 L475.65,180.00 L476.27,180.00 L476.88,180.00 L477.49,180.00 L478.11,180.00 L478.72,180.00 L479.34,180.00 L479.95,180.00 L480.57,180.00 L481.18,180.00 L481.79,180.00 L482.41,180.00 L483.02,180.00 L483.64,180.00 L484.25,180.00 L484.86,180.00 L485.48,180.00 L486.09,180.00 L486.71,180.00 L487.32,180.00 L487.93,180.00 L488.55,180.00 L489.16,180.00 L489.78,180.00 L490.39,180.00 L491.01,180.00 L491.62,180.00 L492.23,180.00 L492.85,180.00 L493.46,180.00 L494.08,180.00 L494.69,180.00 L495.30,180.00 L495.92,180.00 L496.53,180.00 L497.15,180.00 L497.76,180.00 L498.38,180.00 L498.99,180.00 L499.60,180.00 L500.22,180.00 L500.83,180.00 L501.45,180.00 L502.06,180.00 L502.67,180.00 L503.29,180.00 L503.90,180.00 L504.52,180.00 L505.13,180.00 L505.74,180.00 L506.36,180.00 L506.97,180.00 L507.59,180.00 L508.20,180.00 L508.82,180.00 L509.43,180.00 L510.04,180.00 L510.66,180.00 L511.27,180.00 L511.89,180.00 L512.50,180.00 L513.11,180.00 L513.73,180.00 L514.34,180.00 L514.96,180.00 L515.57,180.00 L516.18,180.00 L516.80,180.00 L517.41,180.00 L518.03,180.00 L518.64,180.00 L519.26,180.00 L519.87,180.00 L520.48,180.00 L521.10,180.00 L521.71,180.00 L522.33,180.00 L522.94,180.00 L523.55,180.00 L524.17,180.00 L524.78,180.00 L525.40,180.00 L526.01,180.00 L526.62,180.00 L527.24,180.00 L527.85,180.00 L528.47,180.00 L529.08,180.00 L529.70,180.00 L530.31,180.00 L530.92,180.00 L531.54,180.00 L532.15,180.00 L532.77,180.00 L533.38,180.00 L533.99,180.00 L534.61,180.00 L535.22,180.00 L535.84,180.00 L536.45,180.00 L537.07,180.00 L537.68,180.00 L538.29,180.00 L538.91,180.00 L539.52,180.00 L540.14,180.00 L540.75,180.00 L541.36,180.00 L541.98,180.00 L542.59,180.00 L543.21,180.00 L543.82,180.00 L544.43,180.00 L545.05,180.00 L545.66,180.00 L546.28,180.00 L546.89,180.00 L547.51,180.00 L548.12,180.00 L548.73,180.00 L549.35,180.00 L549.96,180.00 L550.58,180.00 L551.19,180.00 L551.80,180.00 L552.42,180.00 L553.03,180.00 L553.65,180.00 L554.26,180.00 L554.88,180.00 L555.49,180.00 L556.10,180.00 L556.72,180.00 L557.33,180.00 L557.95,180.00 L558.56,180.00 L559.17,180.00 L559.79,180.00 L560.40,180.00 L561.02,180.00 L561.63,180.00 L562.24,180.00 L562.86,180.00 L563.47,180.00 L564.09,180.00 L564.70,180.00 L565.32,180.00 L565.93,180.00 L566.54,180.00 L567.16,180.00 L567.77,180.00 L568.39,180.00 L569.00,180.00 L569.61,180.00 L570.23,180.00 L570.84,180.00 L571.46,180.00 L572.07,180.00 L572.68,180.00 L573.30,180.00 L573.91,180.00 L574.53,180.00 L575.14,180.00 L575.76,180.00 L576.37,180.00 L576.98,180.00 L577.60,180.00 L578.21,180.00 L578.83,180.00 L579.44,180.00 L580.05,180.00 L580.67,180.00 L581.28,180.00 L581.90,180.00 L582.51,180.00 L583.12,180.00 L583.74,180.00 L584.35,180.00 L584.97,180.00 L585.58,180.00 L586.20,180.00 L586.81,180.00 L587.42,180.00 L588.04,180.00 L588.65,180.00 L589.27,180.00 L589.88,180.00 L590.49,180.00 L591.11,180.00 L591.72,180.00 L592.34,180.00 L592.95,180.00 L593.57,180.00 L594.18,180.00 L594.79,180.00 L595.41,180.00 L596.02,180.00 L596.64,180.00 L597.25,180.00 L597.86,180.00 L598.48,180.00 L599.09,180.00 L599.71,180.00 L600.32,180.00 L600.93,180.00 L601.55,180.00 L602.16,180.00 L602.78,180.00 L603.39,180.00 L604.01,180.00 L604.62,180.00 L605.23,180.00 L605.85,180.00 L606.46,180.00 L607.08,180.00 L607.69,180.00 L608.30,180.00 L608.92,180.00 L609.53,180.00 L610.15,180.00 L610.76,180.00 L611.38,180.00 L611.99,180.00 L612.60,180.00 L613.22,180.00 L613.83,180.00 L614.45,180.00 L615.06,180.00 L615.67,180.00 L616.29,180.00 L616.90,180.00 L617.52,180.00 L618.13,180.00 L618.74,180.00 L619.36,180.00 L619.97,180.00 L620.59,180.00 L621.20,180.00 L621.82,180.00 L622.43,180.00 L623.04,180.00 L623.66,180.00 L624.27,180.00 L624.89,180.00 L625.50,180.00 L626.11,180.00 L626.73,180.00 L627.34,180.00 L627.96,180.00 L628.57,180.00 L629.18,180.00 L629.80,180.00 L630.41,180.00 L631.03,180.00 L631.64,180.00 L632.26,180.00 L632.87,180.00 L633.48,180.00 L634.10,180.00 L634.71,180.00 L635.33,180.00 L635.94,180.00 L636.55,180.00 L637.17,180.00 L637.78,180.00 L638.40,180.00 L639.01,180.00 L639.62,180.00 L640.24,180.00 L640.85,180.00 L641.47,180.00 L642.08,180.00 L642.70,180.00 L643.31,180.00 L643.92,180.00 L644.54,180.00 L645.15,180.00 L645.77,180.00 L646.38,180.00 L646.99,180.00 L682.00,180.00 L682.00,545.00 L117.00,545.00 Z" fill="#2dd4bf" opacity="0.12"/>
<path d="M117.00,545.00 L117.00,499.38 L117.00,494.81 L117.00,490.25 L117.00,485.69 L117.61,485.69 L117.61,481.12 L117.61,476.56 L117.61,472.00 L117.61,467.44 L117.61,462.88 L117.61,458.31 L117.61,453.75 L117.61,449.19 L117.61,444.62 L117.61,440.06 L117.61,435.50 L118.23,435.50 L118.84,435.50 L118.84,430.94 L118.84,426.38 L118.84,421.81 L118.84,417.25 L118.84,412.69 L118.84,408.12 L118.84,403.56 L118.84,399.00 L118.84,394.44 L118.84,389.88 L118.84,385.31 L118.84,380.75 L118.84,376.19 L118.84,371.62 L119.46,371.62 L120.07,371.62 L120.07,367.06 L120.68,367.06 L120.68,362.50 L120.68,357.94 L121.30,357.94 L121.30,353.38 L121.91,353.38 L122.53,353.38 L122.53,348.81 L123.14,348.81 L123.14,344.25 L123.76,344.25 L124.37,344.25 L124.37,339.69 L124.98,339.69 L124.98,335.12 L124.98,330.56 L124.98,326.00 L125.60,326.00 L125.60,321.44 L125.60,316.88 L126.21,316.88 L126.21,312.31 L126.21,307.75 L126.21,303.19 L126.83,303.19 L127.44,303.19 L127.44,298.62 L128.05,298.62 L128.05,294.06 L128.67,294.06 L129.28,294.06 L129.90,294.06 L129.90,289.50 L130.51,289.50 L131.12,289.50 L131.74,289.50 L132.35,289.50 L132.97,289.50 L133.58,289.50 L133.58,284.94 L134.20,284.94 L134.20,280.38 L134.20,275.81 L134.81,275.81 L135.42,275.81 L136.04,275.81 L136.65,275.81 L137.27,275.81 L137.88,275.81 L138.49,275.81 L138.49,271.25 L139.11,271.25 L139.72,271.25 L139.72,266.69 L140.34,266.69 L140.34,262.12 L140.95,262.12 L141.57,262.12 L142.18,262.12 L142.79,262.12 L143.41,262.12 L143.41,257.56 L144.02,257.56 L144.64,257.56 L145.25,257.56 L145.86,257.56 L146.48,257.56 L147.09,257.56 L147.71,257.56 L148.32,257.56 L148.32,253.00 L148.93,253.00 L149.55,253.00 L150.16,253.00 L150.16,248.44 L150.78,248.44 L151.39,248.44 L152.01,248.44 L152.62,248.44 L153.23,248.44 L153.85,248.44 L154.46,248.44 L155.08,248.44 L155.69,248.44 L155.69,243.88 L156.30,243.88 L156.92,243.88 L157.53,243.88 L158.15,243.88 L158.76,243.88 L159.38,243.88 L159.99,243.88 L160.60,243.88 L161.22,243.88 L161.83,243.88 L162.45,243.88 L163.06,243.88 L163.06,239.31 L163.67,239.31 L163.67,234.75 L164.29,234.75 L164.90,234.75 L164.90,230.19 L165.52,230.19 L166.13,230.19 L166.74,230.19 L167.36,230.19 L167.97,230.19 L168.59,230.19 L169.20,230.19 L169.82,230.19 L169.82,225.62 L170.43,225.62 L171.04,225.62 L171.04,221.06 L171.66,221.06 L172.27,221.06 L172.89,221.06 L173.50,221.06 L174.11,221.06 L174.73,221.06 L175.34,221.06 L175.96,221.06 L176.57,221.06 L177.18,221.06 L177.80,221.06 L178.41,221.06 L179.03,221.06 L179.64,221.06 L180.26,221.06 L180.87,221.06 L181.48,221.06 L182.10,221.06 L182.71,221.06 L183.33,221.06 L183.94,221.06 L184.55,221.06 L185.17,221.06 L185.78,221.06 L186.40,221.06 L187.01,221.06 L187.62,221.06 L188.24,221.06 L188.85,221.06 L189.47,221.06 L190.08,221.06 L190.70,221.06 L191.31,221.06 L191.92,221.06 L192.54,221.06 L193.15,221.06 L193.15,216.50 L193.77,216.50 L194.38,216.50 L194.99,216.50 L195.61,216.50 L196.22,216.50 L196.84,216.50 L196.84,211.94 L197.45,211.94 L198.07,211.94 L198.68,211.94 L199.29,211.94 L199.91,211.94 L200.52,211.94 L201.14,211.94 L201.75,211.94 L202.36,211.94 L202.98,211.94 L203.59,211.94 L204.21,211.94 L204.82,211.94 L205.43,211.94 L206.05,211.94 L206.66,211.94 L207.28,211.94 L207.89,211.94 L208.51,211.94 L209.12,211.94 L209.73,211.94 L210.35,211.94 L210.96,211.94 L211.58,211.94 L212.19,211.94 L212.80,211.94 L213.42,211.94 L214.03,211.94 L214.65,211.94 L215.26,211.94 L215.88,211.94 L216.49,211.94 L217.10,211.94 L217.72,211.94 L218.33,211.94 L218.95,211.94 L219.56,211.94 L220.17,211.94 L220.79,211.94 L221.40,211.94 L222.02,211.94 L222.02,207.37 L222.63,207.37 L223.24,207.37 L223.86,207.37 L224.47,207.37 L225.09,207.37 L225.70,207.37 L226.32,207.37 L226.93,207.37 L227.54,207.37 L228.16,207.37 L228.77,207.37 L229.39,207.37 L230.00,207.37 L230.61,207.37 L231.23,207.37 L231.84,207.37 L232.46,207.37 L233.07,207.37 L233.07,202.81 L233.68,202.81 L234.30,202.81 L234.91,202.81 L235.53,202.81 L236.14,202.81 L236.76,202.81 L237.37,202.81 L237.98,202.81 L238.60,202.81 L239.21,202.81 L239.83,202.81 L240.44,202.81 L241.05,202.81 L241.67,202.81 L242.28,202.81 L242.90,202.81 L242.90,198.25 L242.90,193.69 L243.51,193.69 L244.12,193.69 L244.74,193.69 L245.35,193.69 L245.97,193.69 L246.58,193.69 L247.20,193.69 L247.81,193.69 L248.42,193.69 L249.04,193.69 L249.65,193.69 L250.27,193.69 L250.88,193.69 L251.49,193.69 L252.11,193.69 L252.72,193.69 L253.34,193.69 L253.95,193.69 L254.57,193.69 L255.18,193.69 L255.79,193.69 L256.41,193.69 L257.02,193.69 L257.64,193.69 L258.25,193.69 L258.86,193.69 L259.48,193.69 L260.09,193.69 L260.09,189.12 L260.71,189.12 L261.32,189.12 L261.93,189.12 L262.55,189.12 L263.16,189.12 L263.78,189.12 L264.39,189.12 L265.01,189.12 L265.62,189.12 L266.23,189.12 L266.85,189.12 L267.46,189.12 L268.08,189.12 L268.69,189.12 L269.30,189.12 L269.92,189.12 L270.53,189.12 L271.15,189.12 L271.76,189.12 L272.38,189.12 L272.99,189.12 L273.60,189.12 L274.22,189.12 L274.83,189.12 L275.45,189.12 L276.06,189.12 L276.67,189.12 L277.29,189.12 L277.90,189.12 L278.52,189.12 L279.13,189.12 L279.74,189.12 L280.36,189.12 L280.97,189.12 L281.59,189.12 L282.20,189.12 L282.82,189.12 L283.43,189.12 L284.04,189.12 L284.66,189.12 L285.27,189.12 L285.89,189.12 L286.50,189.12 L287.11,189.12 L287.73,189.12 L288.34,189.12 L288.96,189.12 L289.57,189.12 L290.18,189.12 L290.80,189.12 L291.41,189.12 L292.03,189.12 L292.64,189.12 L293.26,189.12 L293.87,189.12 L294.48,189.12 L295.10,189.12 L295.71,189.12 L296.33,189.12 L296.94,189.12 L297.55,189.12 L298.17,189.12 L298.78,189.12 L299.40,189.12 L300.01,189.12 L300.62,189.12 L301.24,189.12 L301.85,189.12 L302.47,189.12 L303.08,189.12 L303.70,189.12 L304.31,189.12 L304.92,189.12 L305.54,189.12 L306.15,189.12 L306.77,189.12 L307.38,189.12 L307.99,189.12 L308.61,189.12 L309.22,189.12 L309.84,189.12 L310.45,189.12 L311.07,189.12 L311.07,184.56 L311.68,184.56 L312.29,184.56 L312.91,184.56 L313.52,184.56 L314.14,184.56 L314.75,184.56 L315.36,184.56 L315.98,184.56 L316.59,184.56 L317.21,184.56 L317.82,184.56 L318.43,184.56 L319.05,184.56 L319.66,184.56 L320.28,184.56 L320.89,184.56 L321.51,184.56 L322.12,184.56 L322.73,184.56 L323.35,184.56 L323.96,184.56 L324.58,184.56 L325.19,184.56 L325.80,184.56 L326.42,184.56 L327.03,184.56 L327.65,184.56 L328.26,184.56 L328.88,184.56 L329.49,184.56 L330.10,184.56 L330.72,184.56 L331.33,184.56 L331.95,184.56 L332.56,184.56 L333.17,184.56 L333.79,184.56 L334.40,184.56 L335.02,184.56 L335.63,184.56 L336.24,184.56 L336.86,184.56 L337.47,184.56 L338.09,184.56 L338.70,184.56 L339.32,184.56 L339.93,184.56 L340.54,184.56 L341.16,184.56 L341.77,184.56 L342.39,184.56 L343.00,184.56 L343.61,184.56 L344.23,184.56 L344.84,184.56 L345.46,184.56 L346.07,184.56 L346.68,184.56 L347.30,184.56 L347.91,184.56 L348.53,184.56 L349.14,184.56 L349.76,184.56 L349.76,180.00 L350.37,180.00 L350.98,180.00 L351.60,180.00 L352.21,180.00 L352.83,180.00 L353.44,180.00 L354.05,180.00 L354.67,180.00 L355.28,180.00 L355.90,180.00 L356.51,180.00 L357.12,180.00 L357.74,180.00 L358.35,180.00 L358.97,180.00 L359.58,180.00 L360.20,180.00 L360.81,180.00 L361.42,180.00 L362.04,180.00 L362.65,180.00 L363.27,180.00 L363.88,180.00 L364.49,180.00 L365.11,180.00 L365.72,180.00 L366.34,180.00 L366.95,180.00 L367.57,180.00 L368.18,180.00 L368.79,180.00 L369.41,180.00 L370.02,180.00 L370.64,180.00 L371.25,180.00 L371.86,180.00 L372.48,180.00 L373.09,180.00 L373.71,180.00 L374.32,180.00 L374.93,180.00 L375.55,180.00 L376.16,180.00 L376.78,180.00 L377.39,180.00 L378.01,180.00 L378.62,180.00 L379.23,180.00 L379.85,180.00 L380.46,180.00 L381.08,180.00 L381.69,180.00 L382.30,180.00 L382.92,180.00 L383.53,180.00 L384.15,180.00 L384.76,180.00 L385.38,180.00 L385.99,180.00 L386.60,180.00 L387.22,180.00 L387.83,180.00 L388.45,180.00 L389.06,180.00 L389.67,180.00 L390.29,180.00 L390.90,180.00 L391.52,180.00 L392.13,180.00 L392.74,180.00 L393.36,180.00 L393.97,180.00 L394.59,180.00 L395.20,180.00 L395.82,180.00 L396.43,180.00 L397.04,180.00 L397.66,180.00 L398.27,180.00 L398.89,180.00 L399.50,180.00 L400.11,180.00 L400.73,180.00 L401.34,180.00 L401.96,180.00 L402.57,180.00 L403.18,180.00 L403.80,180.00 L404.41,180.00 L405.03,180.00 L405.64,180.00 L406.26,180.00 L406.87,180.00 L407.48,180.00 L408.10,180.00 L408.71,180.00 L409.33,180.00 L409.94,180.00 L410.55,180.00 L411.17,180.00 L411.78,180.00 L412.40,180.00 L413.01,180.00 L413.62,180.00 L414.24,180.00 L414.85,180.00 L415.47,180.00 L416.08,180.00 L416.70,180.00 L417.31,180.00 L417.92,180.00 L418.54,180.00 L419.15,180.00 L419.77,180.00 L420.38,180.00 L420.99,180.00 L421.61,180.00 L422.22,180.00 L422.84,180.00 L423.45,180.00 L424.07,180.00 L424.68,180.00 L425.29,180.00 L425.91,180.00 L426.52,180.00 L427.14,180.00 L427.75,180.00 L428.36,180.00 L428.98,180.00 L429.59,180.00 L430.21,180.00 L430.82,180.00 L431.43,180.00 L432.05,180.00 L432.66,180.00 L433.28,180.00 L433.89,180.00 L434.51,180.00 L435.12,180.00 L435.73,180.00 L436.35,180.00 L436.96,180.00 L437.58,180.00 L438.19,180.00 L438.80,180.00 L439.42,180.00 L440.03,180.00 L440.65,180.00 L441.26,180.00 L441.88,180.00 L442.49,180.00 L443.10,180.00 L443.72,180.00 L444.33,180.00 L444.95,180.00 L445.56,180.00 L446.17,180.00 L446.79,180.00 L447.40,180.00 L448.02,180.00 L448.63,180.00 L449.24,180.00 L449.86,180.00 L450.47,180.00 L451.09,180.00 L451.70,180.00 L452.32,180.00 L452.93,180.00 L453.54,180.00 L454.16,180.00 L454.77,180.00 L455.39,180.00 L456.00,180.00 L456.61,180.00 L457.23,180.00 L457.84,180.00 L458.46,180.00 L459.07,180.00 L459.68,180.00 L460.30,180.00 L460.91,180.00 L461.53,180.00 L462.14,180.00 L462.76,180.00 L463.37,180.00 L463.98,180.00 L464.60,180.00 L465.21,180.00 L465.83,180.00 L466.44,180.00 L467.05,180.00 L467.67,180.00 L468.28,180.00 L468.90,180.00 L469.51,180.00 L470.12,180.00 L470.74,180.00 L471.35,180.00 L471.97,180.00 L472.58,180.00 L473.20,180.00 L473.81,180.00 L474.42,180.00 L475.04,180.00 L475.65,180.00 L476.27,180.00 L476.88,180.00 L477.49,180.00 L478.11,180.00 L478.72,180.00 L479.34,180.00 L479.95,180.00 L480.57,180.00 L481.18,180.00 L481.79,180.00 L482.41,180.00 L483.02,180.00 L483.64,180.00 L484.25,180.00 L484.86,180.00 L485.48,180.00 L486.09,180.00 L486.71,180.00 L487.32,180.00 L487.93,180.00 L488.55,180.00 L489.16,180.00 L489.78,180.00 L490.39,180.00 L491.01,180.00 L491.62,180.00 L492.23,180.00 L492.85,180.00 L493.46,180.00 L494.08,180.00 L494.69,180.00 L495.30,180.00 L495.92,180.00 L496.53,180.00 L497.15,180.00 L497.76,180.00 L498.38,180.00 L498.99,180.00 L499.60,180.00 L500.22,180.00 L500.83,180.00 L501.45,180.00 L502.06,180.00 L502.67,180.00 L503.29,180.00 L503.90,180.00 L504.52,180.00 L505.13,180.00 L505.74,180.00 L506.36,180.00 L506.97,180.00 L507.59,180.00 L508.20,180.00 L508.82,180.00 L509.43,180.00 L510.04,180.00 L510.66,180.00 L511.27,180.00 L511.89,180.00 L512.50,180.00 L513.11,180.00 L513.73,180.00 L514.34,180.00 L514.96,180.00 L515.57,180.00 L516.18,180.00 L516.80,180.00 L517.41,180.00 L518.03,180.00 L518.64,180.00 L519.26,180.00 L519.87,180.00 L520.48,180.00 L521.10,180.00 L521.71,180.00 L522.33,180.00 L522.94,180.00 L523.55,180.00 L524.17,180.00 L524.78,180.00 L525.40,180.00 L526.01,180.00 L526.62,180.00 L527.24,180.00 L527.85,180.00 L528.47,180.00 L529.08,180.00 L529.70,180.00 L530.31,180.00 L530.92,180.00 L531.54,180.00 L532.15,180.00 L532.77,180.00 L533.38,180.00 L533.99,180.00 L534.61,180.00 L535.22,180.00 L535.84,180.00 L536.45,180.00 L537.07,180.00 L537.68,180.00 L538.29,180.00 L538.91,180.00 L539.52,180.00 L540.14,180.00 L540.75,180.00 L541.36,180.00 L541.98,180.00 L542.59,180.00 L543.21,180.00 L543.82,180.00 L544.43,180.00 L545.05,180.00 L545.66,180.00 L546.28,180.00 L546.89,180.00 L547.51,180.00 L548.12,180.00 L548.73,180.00 L549.35,180.00 L549.96,180.00 L550.58,180.00 L551.19,180.00 L551.80,180.00 L552.42,180.00 L553.03,180.00 L553.65,180.00 L554.26,180.00 L554.88,180.00 L555.49,180.00 L556.10,180.00 L556.72,180.00 L557.33,180.00 L557.95,180.00 L558.56,180.00 L559.17,180.00 L559.79,180.00 L560.40,180.00 L561.02,180.00 L561.63,180.00 L562.24,180.00 L562.86,180.00 L563.47,180.00 L564.09,180.00 L564.70,180.00 L565.32,180.00 L565.93,180.00 L566.54,180.00 L567.16,180.00 L567.77,180.00 L568.39,180.00 L569.00,180.00 L569.61,180.00 L570.23,180.00 L570.84,180.00 L571.46,180.00 L572.07,180.00 L572.68,180.00 L573.30,180.00 L573.91,180.00 L574.53,180.00 L575.14,180.00 L575.76,180.00 L576.37,180.00 L576.98,180.00 L577.60,180.00 L578.21,180.00 L578.83,180.00 L579.44,180.00 L580.05,180.00 L580.67,180.00 L581.28,180.00 L581.90,180.00 L582.51,180.00 L583.12,180.00 L583.74,180.00 L584.35,180.00 L584.97,180.00 L585.58,180.00 L586.20,180.00 L586.81,180.00 L587.42,180.00 L588.04,180.00 L588.65,180.00 L589.27,180.00 L589.88,180.00 L590.49,180.00 L591.11,180.00 L591.72,180.00 L592.34,180.00 L592.95,180.00 L593.57,180.00 L594.18,180.00 L594.79,180.00 L595.41,180.00 L596.02,180.00 L596.64,180.00 L597.25,180.00 L597.86,180.00 L598.48,180.00 L599.09,180.00 L599.71,180.00 L600.32,180.00 L600.93,180.00 L601.55,180.00 L602.16,180.00 L602.78,180.00 L603.39,180.00 L604.01,180.00 L604.62,180.00 L605.23,180.00 L605.85,180.00 L606.46,180.00 L607.08,180.00 L607.69,180.00 L608.30,180.00 L608.92,180.00 L609.53,180.00 L610.15,180.00 L610.76,180.00 L611.38,180.00 L611.99,180.00 L612.60,180.00 L613.22,180.00 L613.83,180.00 L614.45,180.00 L615.06,180.00 L615.67,180.00 L616.29,180.00 L616.90,180.00 L617.52,180.00 L618.13,180.00 L618.74,180.00 L619.36,180.00 L619.97,180.00 L620.59,180.00 L621.20,180.00 L621.82,180.00 L622.43,180.00 L623.04,180.00 L623.66,180.00 L624.27,180.00 L624.89,180.00 L625.50,180.00 L626.11,180.00 L626.73,180.00 L627.34,180.00 L627.96,180.00 L628.57,180.00 L629.18,180.00 L629.80,180.00 L630.41,180.00 L631.03,180.00 L631.64,180.00 L632.26,180.00 L632.87,180.00 L633.48,180.00 L634.10,180.00 L634.71,180.00 L635.33,180.00 L635.94,180.00 L636.55,180.00 L637.17,180.00 L637.78,180.00 L638.40,180.00 L639.01,180.00 L639.62,180.00 L640.24,180.00 L640.85,180.00 L641.47,180.00 L642.08,180.00 L642.70,180.00 L643.31,180.00 L643.92,180.00 L644.54,180.00 L645.15,180.00 L645.77,180.00 L646.38,180.00 L646.99,180.00 L682.00,180.00" fill="none" stroke="#2dd4bf" stroke-width="4" stroke-linejoin="round"/>
<text x="399.5" y="602" fill="#d7e0e9" font-size="15" font-weight="600" text-anchor="middle" >False positive rate</text>
<text x="0" y="0" fill="#d7e0e9" font-size="15" font-weight="600" text-anchor="middle" transform="translate(65 362.5) rotate(-90)">True positive rate (Recall)</text>
<text x="674" y="527" fill="#9ca9b7" font-size="12" font-weight="400" text-anchor="end" >Random ranking</text>
<rect x="780" y="105" width="675" height="535" rx="8" fill="#151d26" stroke="#2b3948"/>
<text x="808" y="145" fill="#f4f7fa" font-size="23" font-weight="700" text-anchor="start" >Precision-Recall curve</text>
<text x="1427" y="145" fill="#fb7185" font-size="19" font-weight="700" text-anchor="end" >AUPRC  0.767</text>
<line x1="852.0" y1="180" x2="852.0" y2="545" stroke="#263341"/>
<line x1="852" y1="545.0" x2="1417" y2="545.0" stroke="#263341"/>
<text x="852.0" y="570" fill="#bac7d5" font-size="12" font-weight="400" text-anchor="middle" >0</text>
<text x="840" y="549.0" fill="#bac7d5" font-size="12" font-weight="400" text-anchor="end" >0</text>
<line x1="993.25" y1="180" x2="993.25" y2="545" stroke="#263341"/>
<line x1="852" y1="453.75" x2="1417" y2="453.75" stroke="#263341"/>
<text x="993.25" y="570" fill="#bac7d5" font-size="12" font-weight="400" text-anchor="middle" >0.25</text>
<text x="840" y="457.75" fill="#bac7d5" font-size="12" font-weight="400" text-anchor="end" >0.25</text>
<line x1="1134.5" y1="180" x2="1134.5" y2="545" stroke="#263341"/>
<line x1="852" y1="362.5" x2="1417" y2="362.5" stroke="#263341"/>
<text x="1134.5" y="570" fill="#bac7d5" font-size="12" font-weight="400" text-anchor="middle" >0.5</text>
<text x="840" y="366.5" fill="#bac7d5" font-size="12" font-weight="400" text-anchor="end" >0.5</text>
<line x1="1275.75" y1="180" x2="1275.75" y2="545" stroke="#263341"/>
<line x1="852" y1="271.25" x2="1417" y2="271.25" stroke="#263341"/>
<text x="1275.75" y="570" fill="#bac7d5" font-size="12" font-weight="400" text-anchor="middle" >0.75</text>
<text x="840" y="275.25" fill="#bac7d5" font-size="12" font-weight="400" text-anchor="end" >0.75</text>
<line x1="1417.0" y1="180" x2="1417.0" y2="545" stroke="#263341"/>
<line x1="852" y1="180.0" x2="1417" y2="180.0" stroke="#263341"/>
<text x="1417.0" y="570" fill="#bac7d5" font-size="12" font-weight="400" text-anchor="middle" >1</text>
<text x="840" y="184.0" fill="#bac7d5" font-size="12" font-weight="400" text-anchor="end" >1</text>
<line x1="852" y1="545" x2="1417" y2="545" stroke="#8695a6"/>
<line x1="852" y1="180" x2="852" y2="545" stroke="#8695a6"/>
<line x1="852" y1="515.8" x2="1417" y2="515.8" stroke="#7b8794" stroke-width="2" stroke-dasharray="7 7"/>
<path d="M852.00,180.00 L922.62,180.00 L929.69,180.00 L936.75,180.00 L943.81,180.00 L943.81,206.07 L950.88,204.33 L957.94,202.81 L965.00,201.47 L972.06,200.28 L979.12,199.21 L986.19,198.25 L993.25,197.38 L1000.31,196.59 L1007.38,195.87 L1014.44,195.21 L1021.50,194.60 L1021.50,208.08 L1021.50,220.56 L1028.56,219.11 L1035.62,217.76 L1042.69,216.50 L1049.75,215.32 L1056.81,214.22 L1063.88,213.18 L1070.94,212.21 L1078.00,211.29 L1085.06,210.42 L1092.12,209.59 L1099.19,208.82 L1106.25,208.08 L1113.31,207.37 L1120.38,206.71 L1120.38,214.76 L1120.38,222.44 L1127.44,221.48 L1127.44,228.67 L1134.50,227.61 L1141.56,226.60 L1141.56,233.23 L1148.62,232.14 L1148.62,238.40 L1148.62,244.41 L1155.69,243.17 L1155.69,248.87 L1162.75,247.59 L1162.75,253.00 L1162.75,258.21 L1169.81,256.84 L1169.81,261.81 L1176.88,260.42 L1183.94,259.08 L1191.00,257.79 L1191.00,262.42 L1198.06,261.11 L1205.12,259.84 L1205.12,264.23 L1212.19,262.95 L1219.25,261.72 L1226.31,260.51 L1226.31,264.64 L1226.31,268.64 L1233.38,267.39 L1233.38,271.25 L1240.44,270.00 L1240.44,273.72 L1240.44,277.33 L1240.44,280.86 L1247.50,279.55 L1247.50,282.95 L1247.50,286.27 L1247.50,289.50 L1247.50,292.65 L1247.50,295.73 L1247.50,298.73 L1254.56,297.32 L1254.56,300.24 L1261.62,298.84 L1268.69,297.47 L1268.69,300.28 L1268.69,303.03 L1268.69,305.72 L1268.69,308.35 L1268.69,310.92 L1268.69,313.44 L1268.69,315.90 L1275.75,314.47 L1275.75,316.88 L1275.75,319.23 L1282.81,317.81 L1282.81,320.10 L1289.88,318.70 L1289.88,320.94 L1289.88,323.14 L1289.88,325.29 L1289.88,327.40 L1289.88,329.48 L1296.94,328.07 L1296.94,330.09 L1296.94,332.08 L1296.94,334.04 L1296.94,335.95 L1296.94,337.84 L1296.94,339.69 L1296.94,341.50 L1296.94,343.29 L1304.00,341.87 L1304.00,343.62 L1304.00,345.34 L1304.00,347.03 L1311.06,345.63 L1311.06,347.29 L1311.06,348.93 L1311.06,350.53 L1311.06,352.11 L1311.06,353.67 L1311.06,355.20 L1311.06,356.71 L1311.06,358.19 L1311.06,359.65 L1318.12,358.26 L1318.12,359.69 L1318.12,361.11 L1318.12,362.50 L1318.12,363.87 L1318.12,365.22 L1318.12,366.56 L1318.12,367.87 L1318.12,369.16 L1318.12,370.43 L1318.12,371.69 L1318.12,372.93 L1318.12,374.15 L1325.19,372.78 L1325.19,373.99 L1332.25,372.64 L1332.25,373.83 L1332.25,375.00 L1339.31,373.67 L1339.31,374.83 L1339.31,375.97 L1339.31,377.10 L1339.31,378.21 L1339.31,379.31 L1339.31,380.39 L1339.31,381.46 L1339.31,382.52 L1346.38,381.22 L1346.38,382.26 L1346.38,383.29 L1353.44,382.01 L1353.44,383.03 L1353.44,384.04 L1353.44,385.03 L1353.44,386.01 L1353.44,386.98 L1353.44,387.94 L1353.44,388.89 L1353.44,389.82 L1353.44,390.74 L1353.44,391.66 L1353.44,392.56 L1353.44,393.45 L1353.44,394.33 L1353.44,395.20 L1353.44,396.06 L1353.44,396.91 L1353.44,397.76 L1353.44,398.59 L1353.44,399.41 L1353.44,400.22 L1353.44,401.03 L1353.44,401.82 L1353.44,402.61 L1353.44,403.39 L1353.44,404.16 L1353.44,404.92 L1353.44,405.67 L1353.44,406.42 L1353.44,407.15 L1353.44,407.88 L1353.44,408.61 L1353.44,409.32 L1353.44,410.03 L1353.44,410.73 L1353.44,411.42 L1353.44,412.10 L1360.50,410.92 L1360.50,411.60 L1360.50,412.27 L1360.50,412.94 L1360.50,413.60 L1360.50,414.25 L1360.50,414.90 L1367.56,413.74 L1367.56,414.39 L1367.56,415.02 L1367.56,415.66 L1367.56,416.28 L1367.56,416.90 L1367.56,417.51 L1367.56,418.12 L1367.56,418.72 L1367.56,419.32 L1367.56,419.91 L1367.56,420.49 L1367.56,421.07 L1367.56,421.64 L1367.56,422.21 L1367.56,422.78 L1367.56,423.33 L1367.56,423.89 L1367.56,424.43 L1367.56,424.98 L1367.56,425.52 L1367.56,426.05 L1367.56,426.58 L1367.56,427.10 L1367.56,427.62 L1367.56,428.14 L1367.56,428.65 L1367.56,429.15 L1367.56,429.65 L1367.56,430.15 L1367.56,430.64 L1367.56,431.13 L1367.56,431.62 L1367.56,432.10 L1367.56,432.57 L1367.56,433.05 L1367.56,433.51 L1367.56,433.98 L1367.56,434.44 L1367.56,434.90 L1367.56,435.35 L1367.56,435.80 L1374.62,434.76 L1374.62,435.20 L1374.62,435.65 L1374.62,436.09 L1374.62,436.53 L1374.62,436.96 L1374.62,437.39 L1374.62,437.82 L1374.62,438.24 L1374.62,438.66 L1374.62,439.08 L1374.62,439.49 L1374.62,439.90 L1374.62,440.31 L1374.62,440.71 L1374.62,441.12 L1374.62,441.51 L1374.62,441.91 L1374.62,442.30 L1381.69,441.31 L1381.69,441.70 L1381.69,442.09 L1381.69,442.47 L1381.69,442.85 L1381.69,443.23 L1381.69,443.61 L1381.69,443.99 L1381.69,444.36 L1381.69,444.73 L1381.69,445.09 L1381.69,445.45 L1381.69,445.82 L1381.69,446.17 L1381.69,446.53 L1381.69,446.88 L1381.69,447.23 L1388.75,446.28 L1395.81,445.34 L1395.81,445.69 L1395.81,446.04 L1395.81,446.39 L1395.81,446.73 L1395.81,447.07 L1395.81,447.41 L1395.81,447.75 L1395.81,448.09 L1395.81,448.42 L1395.81,448.75 L1395.81,449.08 L1395.81,449.40 L1395.81,449.73 L1395.81,450.05 L1395.81,450.37 L1395.81,450.69 L1395.81,451.00 L1395.81,451.32 L1395.81,451.63 L1395.81,451.94 L1395.81,452.24 L1395.81,452.55 L1395.81,452.85 L1395.81,453.15 L1395.81,453.45 L1395.81,453.75 L1395.81,454.05 L1395.81,454.34 L1402.88,453.46 L1402.88,453.75 L1402.88,454.04 L1402.88,454.33 L1402.88,454.62 L1402.88,454.91 L1402.88,455.19 L1402.88,455.47 L1402.88,455.75 L1402.88,456.03 L1402.88,456.31 L1402.88,456.58 L1402.88,456.86 L1402.88,457.13 L1402.88,457.40 L1402.88,457.67 L1402.88,457.94 L1402.88,458.20 L1402.88,458.47 L1402.88,458.73 L1402.88,458.99 L1402.88,459.25 L1402.88,459.50 L1402.88,459.76 L1402.88,460.01 L1402.88,460.27 L1402.88,460.52 L1402.88,460.77 L1402.88,461.02 L1402.88,461.26 L1402.88,461.51 L1402.88,461.75 L1402.88,462.00 L1402.88,462.24 L1402.88,462.48 L1402.88,462.72 L1402.88,462.95 L1402.88,463.19 L1402.88,463.42 L1402.88,463.66 L1402.88,463.89 L1402.88,464.12 L1402.88,464.35 L1402.88,464.58 L1402.88,464.80 L1402.88,465.03 L1402.88,465.25 L1402.88,465.47 L1402.88,465.70 L1402.88,465.92 L1402.88,466.14 L1402.88,466.35 L1402.88,466.57 L1402.88,466.79 L1402.88,467.00 L1402.88,467.21 L1402.88,467.43 L1402.88,467.64 L1402.88,467.85 L1402.88,468.05 L1402.88,468.26 L1402.88,468.47 L1402.88,468.67 L1402.88,468.88 L1402.88,469.08 L1402.88,469.28 L1402.88,469.48 L1402.88,469.68 L1402.88,469.88 L1402.88,470.08 L1402.88,470.28 L1402.88,470.47 L1402.88,470.67 L1402.88,470.86 L1402.88,471.05 L1402.88,471.24 L1402.88,471.43 L1402.88,471.62 L1402.88,471.81 L1402.88,472.00 L1402.88,472.19 L1402.88,472.37 L1402.88,472.56 L1402.88,472.74 L1409.94,472.00 L1409.94,472.18 L1409.94,472.37 L1409.94,472.55 L1409.94,472.73 L1409.94,472.91 L1409.94,473.09 L1409.94,473.27 L1409.94,473.45 L1409.94,473.63 L1409.94,473.80 L1409.94,473.98 L1409.94,474.15 L1409.94,474.33 L1409.94,474.50 L1409.94,474.67 L1409.94,474.84 L1409.94,475.01 L1409.94,475.18 L1409.94,475.35 L1409.94,475.52 L1409.94,475.69 L1409.94,475.85 L1409.94,476.02 L1409.94,476.18 L1409.94,476.35 L1409.94,476.51 L1409.94,476.67 L1409.94,476.83 L1409.94,476.99 L1409.94,477.15 L1409.94,477.31 L1409.94,477.47 L1409.94,477.63 L1409.94,477.79 L1409.94,477.94 L1409.94,478.10 L1409.94,478.25 L1409.94,478.41 L1409.94,478.56 L1409.94,478.71 L1409.94,478.86 L1409.94,479.02 L1409.94,479.17 L1409.94,479.32 L1409.94,479.47 L1409.94,479.61 L1409.94,479.76 L1409.94,479.91 L1409.94,480.06 L1409.94,480.20 L1409.94,480.35 L1409.94,480.49 L1409.94,480.64 L1409.94,480.78 L1409.94,480.92 L1409.94,481.06 L1409.94,481.21 L1409.94,481.35 L1409.94,481.49 L1409.94,481.63 L1409.94,481.77 L1409.94,481.90 L1409.94,482.04 L1417.00,481.38 L1417.00,481.52 L1417.00,481.66 L1417.00,481.80 L1417.00,481.93 L1417.00,482.07 L1417.00,482.20 L1417.00,482.34 L1417.00,482.47 L1417.00,482.61 L1417.00,482.74 L1417.00,482.87 L1417.00,483.00 L1417.00,483.14 L1417.00,483.27 L1417.00,483.40 L1417.00,483.53 L1417.00,483.66 L1417.00,483.78 L1417.00,483.91 L1417.00,484.04 L1417.00,484.17 L1417.00,484.29 L1417.00,484.42 L1417.00,484.54 L1417.00,484.67 L1417.00,484.79 L1417.00,484.92 L1417.00,485.04 L1417.00,485.16 L1417.00,485.29 L1417.00,485.41 L1417.00,485.53 L1417.00,485.65 L1417.00,485.77 L1417.00,485.89 L1417.00,486.01 L1417.00,486.13 L1417.00,486.25 L1417.00,486.37 L1417.00,486.48 L1417.00,486.60 L1417.00,486.72 L1417.00,486.83 L1417.00,486.95 L1417.00,487.06 L1417.00,487.18 L1417.00,487.29 L1417.00,487.41 L1417.00,487.52 L1417.00,487.63 L1417.00,487.75 L1417.00,487.86 L1417.00,487.97 L1417.00,488.08 L1417.00,488.19 L1417.00,488.30 L1417.00,488.41 L1417.00,488.52 L1417.00,488.63 L1417.00,488.74 L1417.00,488.85 L1417.00,488.95 L1417.00,489.06 L1417.00,489.17 L1417.00,489.27 L1417.00,489.38 L1417.00,489.49 L1417.00,489.59 L1417.00,489.70 L1417.00,489.80 L1417.00,489.91 L1417.00,490.01 L1417.00,490.11 L1417.00,490.22 L1417.00,490.32 L1417.00,490.42 L1417.00,490.52 L1417.00,490.62 L1417.00,490.72 L1417.00,490.83 L1417.00,490.93 L1417.00,491.03 L1417.00,491.13 L1417.00,491.22 L1417.00,491.32 L1417.00,491.42 L1417.00,491.52 L1417.00,491.62 L1417.00,491.72 L1417.00,491.81 L1417.00,491.91 L1417.00,492.01 L1417.00,492.10 L1417.00,492.20 L1417.00,492.29 L1417.00,492.39 L1417.00,492.48 L1417.00,492.58 L1417.00,492.67 L1417.00,492.76 L1417.00,492.86 L1417.00,492.95 L1417.00,493.04 L1417.00,493.13 L1417.00,493.23 L1417.00,493.32 L1417.00,493.41 L1417.00,493.50 L1417.00,493.59 L1417.00,493.68 L1417.00,493.77 L1417.00,493.86 L1417.00,493.95 L1417.00,494.04 L1417.00,494.13 L1417.00,494.22 L1417.00,494.31 L1417.00,494.39 L1417.00,494.48 L1417.00,494.57 L1417.00,494.66 L1417.00,494.74 L1417.00,494.83 L1417.00,494.91 L1417.00,495.00 L1417.00,495.09 L1417.00,495.17 L1417.00,495.26 L1417.00,495.34 L1417.00,495.42 L1417.00,495.51 L1417.00,495.59 L1417.00,495.68 L1417.00,495.76 L1417.00,495.84 L1417.00,495.92 L1417.00,496.01 L1417.00,496.09 L1417.00,496.17 L1417.00,496.25 L1417.00,496.33 L1417.00,496.41 L1417.00,496.50 L1417.00,496.58 L1417.00,496.66 L1417.00,496.74 L1417.00,496.82 L1417.00,496.89 L1417.00,496.97 L1417.00,497.05 L1417.00,497.13 L1417.00,497.21 L1417.00,497.29 L1417.00,497.37 L1417.00,497.44 L1417.00,497.52 L1417.00,497.60 L1417.00,497.67 L1417.00,497.75 L1417.00,497.83 L1417.00,497.90 L1417.00,497.98 L1417.00,498.05 L1417.00,498.13 L1417.00,498.21 L1417.00,498.28 L1417.00,498.35 L1417.00,498.43 L1417.00,498.50 L1417.00,498.58 L1417.00,498.65 L1417.00,498.72 L1417.00,498.80 L1417.00,498.87 L1417.00,498.94 L1417.00,499.02 L1417.00,499.09 L1417.00,499.16 L1417.00,499.23 L1417.00,499.30 L1417.00,499.38 L1417.00,499.45 L1417.00,499.52 L1417.00,499.59 L1417.00,499.66 L1417.00,499.73 L1417.00,499.80 L1417.00,499.87 L1417.00,499.94 L1417.00,500.01 L1417.00,500.08 L1417.00,500.15 L1417.00,500.21 L1417.00,500.28 L1417.00,500.35 L1417.00,500.42 L1417.00,500.49 L1417.00,500.56 L1417.00,500.62 L1417.00,500.69 L1417.00,500.76 L1417.00,500.82 L1417.00,500.89 L1417.00,500.96 L1417.00,501.02 L1417.00,501.09 L1417.00,501.16 L1417.00,501.22 L1417.00,501.29 L1417.00,501.35 L1417.00,501.42 L1417.00,501.48 L1417.00,501.55 L1417.00,501.61 L1417.00,501.68 L1417.00,501.74 L1417.00,501.80 L1417.00,501.87 L1417.00,501.93 L1417.00,502.00 L1417.00,502.06 L1417.00,502.12 L1417.00,502.18 L1417.00,502.25 L1417.00,502.31 L1417.00,502.37 L1417.00,502.43 L1417.00,502.50 L1417.00,502.56 L1417.00,502.62 L1417.00,502.68 L1417.00,502.74 L1417.00,502.80 L1417.00,502.86 L1417.00,502.93 L1417.00,502.99 L1417.00,503.05 L1417.00,503.11 L1417.00,503.17 L1417.00,503.23 L1417.00,503.29 L1417.00,503.35 L1417.00,503.40 L1417.00,503.46 L1417.00,503.52 L1417.00,503.58 L1417.00,503.64 L1417.00,503.70 L1417.00,503.76 L1417.00,503.82 L1417.00,503.87 L1417.00,503.93 L1417.00,503.99 L1417.00,504.05 L1417.00,504.10 L1417.00,504.16 L1417.00,504.22 L1417.00,504.27 L1417.00,504.33 L1417.00,504.39 L1417.00,504.44 L1417.00,504.50 L1417.00,504.56 L1417.00,504.61 L1417.00,504.67 L1417.00,504.72 L1417.00,504.78 L1417.00,504.83 L1417.00,504.89 L1417.00,504.95 L1417.00,505.00 L1417.00,505.05 L1417.00,505.11 L1417.00,505.16 L1417.00,505.22 L1417.00,505.27 L1417.00,505.33 L1417.00,505.38 L1417.00,505.43 L1417.00,505.49 L1417.00,505.54 L1417.00,505.59 L1417.00,505.65 L1417.00,505.70 L1417.00,505.75 L1417.00,505.81 L1417.00,505.86 L1417.00,505.91 L1417.00,505.96 L1417.00,506.01 L1417.00,506.07 L1417.00,506.12 L1417.00,506.17 L1417.00,506.22 L1417.00,506.27 L1417.00,506.32 L1417.00,506.38 L1417.00,506.43 L1417.00,506.48 L1417.00,506.53 L1417.00,506.58 L1417.00,506.63 L1417.00,506.68 L1417.00,506.73 L1417.00,506.78 L1417.00,506.83 L1417.00,506.88 L1417.00,506.93 L1417.00,506.98 L1417.00,507.03 L1417.00,507.08 L1417.00,507.13 L1417.00,507.18 L1417.00,507.23 L1417.00,507.27 L1417.00,507.32 L1417.00,507.37 L1417.00,507.42 L1417.00,507.47 L1417.00,507.52 L1417.00,507.56 L1417.00,507.61 L1417.00,507.66 L1417.00,507.71 L1417.00,507.76 L1417.00,507.80 L1417.00,507.85 L1417.00,507.90 L1417.00,507.94 L1417.00,507.99 L1417.00,508.04 L1417.00,508.08 L1417.00,508.13 L1417.00,508.18 L1417.00,508.22 L1417.00,508.27 L1417.00,508.32 L1417.00,508.36 L1417.00,508.41 L1417.00,508.45 L1417.00,508.50 L1417.00,508.55 L1417.00,508.59 L1417.00,508.64 L1417.00,508.68 L1417.00,508.73 L1417.00,508.77 L1417.00,508.82 L1417.00,508.86 L1417.00,508.91 L1417.00,508.95 L1417.00,509.00 L1417.00,509.04 L1417.00,509.08 L1417.00,509.13 L1417.00,509.17 L1417.00,509.22 L1417.00,509.26 L1417.00,509.30 L1417.00,509.35 L1417.00,509.39 L1417.00,509.43 L1417.00,509.48 L1417.00,509.52 L1417.00,509.56 L1417.00,509.61 L1417.00,509.65 L1417.00,509.69 L1417.00,509.73 L1417.00,509.78 L1417.00,509.82 L1417.00,509.86 L1417.00,509.90 L1417.00,509.95 L1417.00,509.99 L1417.00,510.03 L1417.00,510.07 L1417.00,510.11 L1417.00,510.16 L1417.00,510.20 L1417.00,510.24 L1417.00,510.28 L1417.00,510.32 L1417.00,510.36 L1417.00,510.40 L1417.00,510.44 L1417.00,510.48 L1417.00,510.53 L1417.00,510.57 L1417.00,510.61 L1417.00,510.65 L1417.00,510.69 L1417.00,510.73 L1417.00,510.77 L1417.00,510.81 L1417.00,510.85 L1417.00,510.89 L1417.00,510.93 L1417.00,510.97 L1417.00,511.01 L1417.00,511.05 L1417.00,511.09 L1417.00,511.13 L1417.00,511.16 L1417.00,511.20 L1417.00,511.24 L1417.00,511.28 L1417.00,511.32 L1417.00,511.36 L1417.00,511.40 L1417.00,511.44 L1417.00,511.48 L1417.00,511.51 L1417.00,511.55 L1417.00,511.59 L1417.00,511.63 L1417.00,511.67 L1417.00,511.70 L1417.00,511.74 L1417.00,511.78 L1417.00,511.82 L1417.00,511.86 L1417.00,511.89 L1417.00,511.93 L1417.00,511.97 L1417.00,512.01 L1417.00,512.04 L1417.00,512.08 L1417.00,512.12 L1417.00,512.15 L1417.00,512.19 L1417.00,512.23 L1417.00,512.26 L1417.00,512.30 L1417.00,512.34 L1417.00,512.37 L1417.00,512.41 L1417.00,512.45 L1417.00,512.48 L1417.00,512.52 L1417.00,512.56 L1417.00,512.59 L1417.00,512.63 L1417.00,512.66 L1417.00,512.70 L1417.00,512.73 L1417.00,512.77 L1417.00,512.81 L1417.00,512.84 L1417.00,512.88 L1417.00,512.91 L1417.00,512.95 L1417.00,512.98 L1417.00,513.02 L1417.00,513.05 L1417.00,513.09 L1417.00,513.12 L1417.00,513.16 L1417.00,513.19 L1417.00,513.23 L1417.00,513.26 L1417.00,513.30 L1417.00,513.33 L1417.00,513.36 L1417.00,513.40 L1417.00,513.43 L1417.00,513.47 L1417.00,513.50 L1417.00,513.53 L1417.00,513.57 L1417.00,513.60 L1417.00,513.64 L1417.00,513.67 L1417.00,513.70 L1417.00,513.74 L1417.00,513.77 L1417.00,513.80 L1417.00,513.84 L1417.00,513.87 L1417.00,513.90 L1417.00,513.94 L1417.00,513.97 L1417.00,514.00 L1417.00,514.03 L1417.00,515.80 L1417.00,545.00 L852.00,545.00 Z" fill="#fb7185" opacity="0.12"/>
<path d="M852.00,180.00 L922.62,180.00 L929.69,180.00 L936.75,180.00 L943.81,180.00 L943.81,206.07 L950.88,204.33 L957.94,202.81 L965.00,201.47 L972.06,200.28 L979.12,199.21 L986.19,198.25 L993.25,197.38 L1000.31,196.59 L1007.38,195.87 L1014.44,195.21 L1021.50,194.60 L1021.50,208.08 L1021.50,220.56 L1028.56,219.11 L1035.62,217.76 L1042.69,216.50 L1049.75,215.32 L1056.81,214.22 L1063.88,213.18 L1070.94,212.21 L1078.00,211.29 L1085.06,210.42 L1092.12,209.59 L1099.19,208.82 L1106.25,208.08 L1113.31,207.37 L1120.38,206.71 L1120.38,214.76 L1120.38,222.44 L1127.44,221.48 L1127.44,228.67 L1134.50,227.61 L1141.56,226.60 L1141.56,233.23 L1148.62,232.14 L1148.62,238.40 L1148.62,244.41 L1155.69,243.17 L1155.69,248.87 L1162.75,247.59 L1162.75,253.00 L1162.75,258.21 L1169.81,256.84 L1169.81,261.81 L1176.88,260.42 L1183.94,259.08 L1191.00,257.79 L1191.00,262.42 L1198.06,261.11 L1205.12,259.84 L1205.12,264.23 L1212.19,262.95 L1219.25,261.72 L1226.31,260.51 L1226.31,264.64 L1226.31,268.64 L1233.38,267.39 L1233.38,271.25 L1240.44,270.00 L1240.44,273.72 L1240.44,277.33 L1240.44,280.86 L1247.50,279.55 L1247.50,282.95 L1247.50,286.27 L1247.50,289.50 L1247.50,292.65 L1247.50,295.73 L1247.50,298.73 L1254.56,297.32 L1254.56,300.24 L1261.62,298.84 L1268.69,297.47 L1268.69,300.28 L1268.69,303.03 L1268.69,305.72 L1268.69,308.35 L1268.69,310.92 L1268.69,313.44 L1268.69,315.90 L1275.75,314.47 L1275.75,316.88 L1275.75,319.23 L1282.81,317.81 L1282.81,320.10 L1289.88,318.70 L1289.88,320.94 L1289.88,323.14 L1289.88,325.29 L1289.88,327.40 L1289.88,329.48 L1296.94,328.07 L1296.94,330.09 L1296.94,332.08 L1296.94,334.04 L1296.94,335.95 L1296.94,337.84 L1296.94,339.69 L1296.94,341.50 L1296.94,343.29 L1304.00,341.87 L1304.00,343.62 L1304.00,345.34 L1304.00,347.03 L1311.06,345.63 L1311.06,347.29 L1311.06,348.93 L1311.06,350.53 L1311.06,352.11 L1311.06,353.67 L1311.06,355.20 L1311.06,356.71 L1311.06,358.19 L1311.06,359.65 L1318.12,358.26 L1318.12,359.69 L1318.12,361.11 L1318.12,362.50 L1318.12,363.87 L1318.12,365.22 L1318.12,366.56 L1318.12,367.87 L1318.12,369.16 L1318.12,370.43 L1318.12,371.69 L1318.12,372.93 L1318.12,374.15 L1325.19,372.78 L1325.19,373.99 L1332.25,372.64 L1332.25,373.83 L1332.25,375.00 L1339.31,373.67 L1339.31,374.83 L1339.31,375.97 L1339.31,377.10 L1339.31,378.21 L1339.31,379.31 L1339.31,380.39 L1339.31,381.46 L1339.31,382.52 L1346.38,381.22 L1346.38,382.26 L1346.38,383.29 L1353.44,382.01 L1353.44,383.03 L1353.44,384.04 L1353.44,385.03 L1353.44,386.01 L1353.44,386.98 L1353.44,387.94 L1353.44,388.89 L1353.44,389.82 L1353.44,390.74 L1353.44,391.66 L1353.44,392.56 L1353.44,393.45 L1353.44,394.33 L1353.44,395.20 L1353.44,396.06 L1353.44,396.91 L1353.44,397.76 L1353.44,398.59 L1353.44,399.41 L1353.44,400.22 L1353.44,401.03 L1353.44,401.82 L1353.44,402.61 L1353.44,403.39 L1353.44,404.16 L1353.44,404.92 L1353.44,405.67 L1353.44,406.42 L1353.44,407.15 L1353.44,407.88 L1353.44,408.61 L1353.44,409.32 L1353.44,410.03 L1353.44,410.73 L1353.44,411.42 L1353.44,412.10 L1360.50,410.92 L1360.50,411.60 L1360.50,412.27 L1360.50,412.94 L1360.50,413.60 L1360.50,414.25 L1360.50,414.90 L1367.56,413.74 L1367.56,414.39 L1367.56,415.02 L1367.56,415.66 L1367.56,416.28 L1367.56,416.90 L1367.56,417.51 L1367.56,418.12 L1367.56,418.72 L1367.56,419.32 L1367.56,419.91 L1367.56,420.49 L1367.56,421.07 L1367.56,421.64 L1367.56,422.21 L1367.56,422.78 L1367.56,423.33 L1367.56,423.89 L1367.56,424.43 L1367.56,424.98 L1367.56,425.52 L1367.56,426.05 L1367.56,426.58 L1367.56,427.10 L1367.56,427.62 L1367.56,428.14 L1367.56,428.65 L1367.56,429.15 L1367.56,429.65 L1367.56,430.15 L1367.56,430.64 L1367.56,431.13 L1367.56,431.62 L1367.56,432.10 L1367.56,432.57 L1367.56,433.05 L1367.56,433.51 L1367.56,433.98 L1367.56,434.44 L1367.56,434.90 L1367.56,435.35 L1367.56,435.80 L1374.62,434.76 L1374.62,435.20 L1374.62,435.65 L1374.62,436.09 L1374.62,436.53 L1374.62,436.96 L1374.62,437.39 L1374.62,437.82 L1374.62,438.24 L1374.62,438.66 L1374.62,439.08 L1374.62,439.49 L1374.62,439.90 L1374.62,440.31 L1374.62,440.71 L1374.62,441.12 L1374.62,441.51 L1374.62,441.91 L1374.62,442.30 L1381.69,441.31 L1381.69,441.70 L1381.69,442.09 L1381.69,442.47 L1381.69,442.85 L1381.69,443.23 L1381.69,443.61 L1381.69,443.99 L1381.69,444.36 L1381.69,444.73 L1381.69,445.09 L1381.69,445.45 L1381.69,445.82 L1381.69,446.17 L1381.69,446.53 L1381.69,446.88 L1381.69,447.23 L1388.75,446.28 L1395.81,445.34 L1395.81,445.69 L1395.81,446.04 L1395.81,446.39 L1395.81,446.73 L1395.81,447.07 L1395.81,447.41 L1395.81,447.75 L1395.81,448.09 L1395.81,448.42 L1395.81,448.75 L1395.81,449.08 L1395.81,449.40 L1395.81,449.73 L1395.81,450.05 L1395.81,450.37 L1395.81,450.69 L1395.81,451.00 L1395.81,451.32 L1395.81,451.63 L1395.81,451.94 L1395.81,452.24 L1395.81,452.55 L1395.81,452.85 L1395.81,453.15 L1395.81,453.45 L1395.81,453.75 L1395.81,454.05 L1395.81,454.34 L1402.88,453.46 L1402.88,453.75 L1402.88,454.04 L1402.88,454.33 L1402.88,454.62 L1402.88,454.91 L1402.88,455.19 L1402.88,455.47 L1402.88,455.75 L1402.88,456.03 L1402.88,456.31 L1402.88,456.58 L1402.88,456.86 L1402.88,457.13 L1402.88,457.40 L1402.88,457.67 L1402.88,457.94 L1402.88,458.20 L1402.88,458.47 L1402.88,458.73 L1402.88,458.99 L1402.88,459.25 L1402.88,459.50 L1402.88,459.76 L1402.88,460.01 L1402.88,460.27 L1402.88,460.52 L1402.88,460.77 L1402.88,461.02 L1402.88,461.26 L1402.88,461.51 L1402.88,461.75 L1402.88,462.00 L1402.88,462.24 L1402.88,462.48 L1402.88,462.72 L1402.88,462.95 L1402.88,463.19 L1402.88,463.42 L1402.88,463.66 L1402.88,463.89 L1402.88,464.12 L1402.88,464.35 L1402.88,464.58 L1402.88,464.80 L1402.88,465.03 L1402.88,465.25 L1402.88,465.47 L1402.88,465.70 L1402.88,465.92 L1402.88,466.14 L1402.88,466.35 L1402.88,466.57 L1402.88,466.79 L1402.88,467.00 L1402.88,467.21 L1402.88,467.43 L1402.88,467.64 L1402.88,467.85 L1402.88,468.05 L1402.88,468.26 L1402.88,468.47 L1402.88,468.67 L1402.88,468.88 L1402.88,469.08 L1402.88,469.28 L1402.88,469.48 L1402.88,469.68 L1402.88,469.88 L1402.88,470.08 L1402.88,470.28 L1402.88,470.47 L1402.88,470.67 L1402.88,470.86 L1402.88,471.05 L1402.88,471.24 L1402.88,471.43 L1402.88,471.62 L1402.88,471.81 L1402.88,472.00 L1402.88,472.19 L1402.88,472.37 L1402.88,472.56 L1402.88,472.74 L1409.94,472.00 L1409.94,472.18 L1409.94,472.37 L1409.94,472.55 L1409.94,472.73 L1409.94,472.91 L1409.94,473.09 L1409.94,473.27 L1409.94,473.45 L1409.94,473.63 L1409.94,473.80 L1409.94,473.98 L1409.94,474.15 L1409.94,474.33 L1409.94,474.50 L1409.94,474.67 L1409.94,474.84 L1409.94,475.01 L1409.94,475.18 L1409.94,475.35 L1409.94,475.52 L1409.94,475.69 L1409.94,475.85 L1409.94,476.02 L1409.94,476.18 L1409.94,476.35 L1409.94,476.51 L1409.94,476.67 L1409.94,476.83 L1409.94,476.99 L1409.94,477.15 L1409.94,477.31 L1409.94,477.47 L1409.94,477.63 L1409.94,477.79 L1409.94,477.94 L1409.94,478.10 L1409.94,478.25 L1409.94,478.41 L1409.94,478.56 L1409.94,478.71 L1409.94,478.86 L1409.94,479.02 L1409.94,479.17 L1409.94,479.32 L1409.94,479.47 L1409.94,479.61 L1409.94,479.76 L1409.94,479.91 L1409.94,480.06 L1409.94,480.20 L1409.94,480.35 L1409.94,480.49 L1409.94,480.64 L1409.94,480.78 L1409.94,480.92 L1409.94,481.06 L1409.94,481.21 L1409.94,481.35 L1409.94,481.49 L1409.94,481.63 L1409.94,481.77 L1409.94,481.90 L1409.94,482.04 L1417.00,481.38 L1417.00,481.52 L1417.00,481.66 L1417.00,481.80 L1417.00,481.93 L1417.00,482.07 L1417.00,482.20 L1417.00,482.34 L1417.00,482.47 L1417.00,482.61 L1417.00,482.74 L1417.00,482.87 L1417.00,483.00 L1417.00,483.14 L1417.00,483.27 L1417.00,483.40 L1417.00,483.53 L1417.00,483.66 L1417.00,483.78 L1417.00,483.91 L1417.00,484.04 L1417.00,484.17 L1417.00,484.29 L1417.00,484.42 L1417.00,484.54 L1417.00,484.67 L1417.00,484.79 L1417.00,484.92 L1417.00,485.04 L1417.00,485.16 L1417.00,485.29 L1417.00,485.41 L1417.00,485.53 L1417.00,485.65 L1417.00,485.77 L1417.00,485.89 L1417.00,486.01 L1417.00,486.13 L1417.00,486.25 L1417.00,486.37 L1417.00,486.48 L1417.00,486.60 L1417.00,486.72 L1417.00,486.83 L1417.00,486.95 L1417.00,487.06 L1417.00,487.18 L1417.00,487.29 L1417.00,487.41 L1417.00,487.52 L1417.00,487.63 L1417.00,487.75 L1417.00,487.86 L1417.00,487.97 L1417.00,488.08 L1417.00,488.19 L1417.00,488.30 L1417.00,488.41 L1417.00,488.52 L1417.00,488.63 L1417.00,488.74 L1417.00,488.85 L1417.00,488.95 L1417.00,489.06 L1417.00,489.17 L1417.00,489.27 L1417.00,489.38 L1417.00,489.49 L1417.00,489.59 L1417.00,489.70 L1417.00,489.80 L1417.00,489.91 L1417.00,490.01 L1417.00,490.11 L1417.00,490.22 L1417.00,490.32 L1417.00,490.42 L1417.00,490.52 L1417.00,490.62 L1417.00,490.72 L1417.00,490.83 L1417.00,490.93 L1417.00,491.03 L1417.00,491.13 L1417.00,491.22 L1417.00,491.32 L1417.00,491.42 L1417.00,491.52 L1417.00,491.62 L1417.00,491.72 L1417.00,491.81 L1417.00,491.91 L1417.00,492.01 L1417.00,492.10 L1417.00,492.20 L1417.00,492.29 L1417.00,492.39 L1417.00,492.48 L1417.00,492.58 L1417.00,492.67 L1417.00,492.76 L1417.00,492.86 L1417.00,492.95 L1417.00,493.04 L1417.00,493.13 L1417.00,493.23 L1417.00,493.32 L1417.00,493.41 L1417.00,493.50 L1417.00,493.59 L1417.00,493.68 L1417.00,493.77 L1417.00,493.86 L1417.00,493.95 L1417.00,494.04 L1417.00,494.13 L1417.00,494.22 L1417.00,494.31 L1417.00,494.39 L1417.00,494.48 L1417.00,494.57 L1417.00,494.66 L1417.00,494.74 L1417.00,494.83 L1417.00,494.91 L1417.00,495.00 L1417.00,495.09 L1417.00,495.17 L1417.00,495.26 L1417.00,495.34 L1417.00,495.42 L1417.00,495.51 L1417.00,495.59 L1417.00,495.68 L1417.00,495.76 L1417.00,495.84 L1417.00,495.92 L1417.00,496.01 L1417.00,496.09 L1417.00,496.17 L1417.00,496.25 L1417.00,496.33 L1417.00,496.41 L1417.00,496.50 L1417.00,496.58 L1417.00,496.66 L1417.00,496.74 L1417.00,496.82 L1417.00,496.89 L1417.00,496.97 L1417.00,497.05 L1417.00,497.13 L1417.00,497.21 L1417.00,497.29 L1417.00,497.37 L1417.00,497.44 L1417.00,497.52 L1417.00,497.60 L1417.00,497.67 L1417.00,497.75 L1417.00,497.83 L1417.00,497.90 L1417.00,497.98 L1417.00,498.05 L1417.00,498.13 L1417.00,498.21 L1417.00,498.28 L1417.00,498.35 L1417.00,498.43 L1417.00,498.50 L1417.00,498.58 L1417.00,498.65 L1417.00,498.72 L1417.00,498.80 L1417.00,498.87 L1417.00,498.94 L1417.00,499.02 L1417.00,499.09 L1417.00,499.16 L1417.00,499.23 L1417.00,499.30 L1417.00,499.38 L1417.00,499.45 L1417.00,499.52 L1417.00,499.59 L1417.00,499.66 L1417.00,499.73 L1417.00,499.80 L1417.00,499.87 L1417.00,499.94 L1417.00,500.01 L1417.00,500.08 L1417.00,500.15 L1417.00,500.21 L1417.00,500.28 L1417.00,500.35 L1417.00,500.42 L1417.00,500.49 L1417.00,500.56 L1417.00,500.62 L1417.00,500.69 L1417.00,500.76 L1417.00,500.82 L1417.00,500.89 L1417.00,500.96 L1417.00,501.02 L1417.00,501.09 L1417.00,501.16 L1417.00,501.22 L1417.00,501.29 L1417.00,501.35 L1417.00,501.42 L1417.00,501.48 L1417.00,501.55 L1417.00,501.61 L1417.00,501.68 L1417.00,501.74 L1417.00,501.80 L1417.00,501.87 L1417.00,501.93 L1417.00,502.00 L1417.00,502.06 L1417.00,502.12 L1417.00,502.18 L1417.00,502.25 L1417.00,502.31 L1417.00,502.37 L1417.00,502.43 L1417.00,502.50 L1417.00,502.56 L1417.00,502.62 L1417.00,502.68 L1417.00,502.74 L1417.00,502.80 L1417.00,502.86 L1417.00,502.93 L1417.00,502.99 L1417.00,503.05 L1417.00,503.11 L1417.00,503.17 L1417.00,503.23 L1417.00,503.29 L1417.00,503.35 L1417.00,503.40 L1417.00,503.46 L1417.00,503.52 L1417.00,503.58 L1417.00,503.64 L1417.00,503.70 L1417.00,503.76 L1417.00,503.82 L1417.00,503.87 L1417.00,503.93 L1417.00,503.99 L1417.00,504.05 L1417.00,504.10 L1417.00,504.16 L1417.00,504.22 L1417.00,504.27 L1417.00,504.33 L1417.00,504.39 L1417.00,504.44 L1417.00,504.50 L1417.00,504.56 L1417.00,504.61 L1417.00,504.67 L1417.00,504.72 L1417.00,504.78 L1417.00,504.83 L1417.00,504.89 L1417.00,504.95 L1417.00,505.00 L1417.00,505.05 L1417.00,505.11 L1417.00,505.16 L1417.00,505.22 L1417.00,505.27 L1417.00,505.33 L1417.00,505.38 L1417.00,505.43 L1417.00,505.49 L1417.00,505.54 L1417.00,505.59 L1417.00,505.65 L1417.00,505.70 L1417.00,505.75 L1417.00,505.81 L1417.00,505.86 L1417.00,505.91 L1417.00,505.96 L1417.00,506.01 L1417.00,506.07 L1417.00,506.12 L1417.00,506.17 L1417.00,506.22 L1417.00,506.27 L1417.00,506.32 L1417.00,506.38 L1417.00,506.43 L1417.00,506.48 L1417.00,506.53 L1417.00,506.58 L1417.00,506.63 L1417.00,506.68 L1417.00,506.73 L1417.00,506.78 L1417.00,506.83 L1417.00,506.88 L1417.00,506.93 L1417.00,506.98 L1417.00,507.03 L1417.00,507.08 L1417.00,507.13 L1417.00,507.18 L1417.00,507.23 L1417.00,507.27 L1417.00,507.32 L1417.00,507.37 L1417.00,507.42 L1417.00,507.47 L1417.00,507.52 L1417.00,507.56 L1417.00,507.61 L1417.00,507.66 L1417.00,507.71 L1417.00,507.76 L1417.00,507.80 L1417.00,507.85 L1417.00,507.90 L1417.00,507.94 L1417.00,507.99 L1417.00,508.04 L1417.00,508.08 L1417.00,508.13 L1417.00,508.18 L1417.00,508.22 L1417.00,508.27 L1417.00,508.32 L1417.00,508.36 L1417.00,508.41 L1417.00,508.45 L1417.00,508.50 L1417.00,508.55 L1417.00,508.59 L1417.00,508.64 L1417.00,508.68 L1417.00,508.73 L1417.00,508.77 L1417.00,508.82 L1417.00,508.86 L1417.00,508.91 L1417.00,508.95 L1417.00,509.00 L1417.00,509.04 L1417.00,509.08 L1417.00,509.13 L1417.00,509.17 L1417.00,509.22 L1417.00,509.26 L1417.00,509.30 L1417.00,509.35 L1417.00,509.39 L1417.00,509.43 L1417.00,509.48 L1417.00,509.52 L1417.00,509.56 L1417.00,509.61 L1417.00,509.65 L1417.00,509.69 L1417.00,509.73 L1417.00,509.78 L1417.00,509.82 L1417.00,509.86 L1417.00,509.90 L1417.00,509.95 L1417.00,509.99 L1417.00,510.03 L1417.00,510.07 L1417.00,510.11 L1417.00,510.16 L1417.00,510.20 L1417.00,510.24 L1417.00,510.28 L1417.00,510.32 L1417.00,510.36 L1417.00,510.40 L1417.00,510.44 L1417.00,510.48 L1417.00,510.53 L1417.00,510.57 L1417.00,510.61 L1417.00,510.65 L1417.00,510.69 L1417.00,510.73 L1417.00,510.77 L1417.00,510.81 L1417.00,510.85 L1417.00,510.89 L1417.00,510.93 L1417.00,510.97 L1417.00,511.01 L1417.00,511.05 L1417.00,511.09 L1417.00,511.13 L1417.00,511.16 L1417.00,511.20 L1417.00,511.24 L1417.00,511.28 L1417.00,511.32 L1417.00,511.36 L1417.00,511.40 L1417.00,511.44 L1417.00,511.48 L1417.00,511.51 L1417.00,511.55 L1417.00,511.59 L1417.00,511.63 L1417.00,511.67 L1417.00,511.70 L1417.00,511.74 L1417.00,511.78 L1417.00,511.82 L1417.00,511.86 L1417.00,511.89 L1417.00,511.93 L1417.00,511.97 L1417.00,512.01 L1417.00,512.04 L1417.00,512.08 L1417.00,512.12 L1417.00,512.15 L1417.00,512.19 L1417.00,512.23 L1417.00,512.26 L1417.00,512.30 L1417.00,512.34 L1417.00,512.37 L1417.00,512.41 L1417.00,512.45 L1417.00,512.48 L1417.00,512.52 L1417.00,512.56 L1417.00,512.59 L1417.00,512.63 L1417.00,512.66 L1417.00,512.70 L1417.00,512.73 L1417.00,512.77 L1417.00,512.81 L1417.00,512.84 L1417.00,512.88 L1417.00,512.91 L1417.00,512.95 L1417.00,512.98 L1417.00,513.02 L1417.00,513.05 L1417.00,513.09 L1417.00,513.12 L1417.00,513.16 L1417.00,513.19 L1417.00,513.23 L1417.00,513.26 L1417.00,513.30 L1417.00,513.33 L1417.00,513.36 L1417.00,513.40 L1417.00,513.43 L1417.00,513.47 L1417.00,513.50 L1417.00,513.53 L1417.00,513.57 L1417.00,513.60 L1417.00,513.64 L1417.00,513.67 L1417.00,513.70 L1417.00,513.74 L1417.00,513.77 L1417.00,513.80 L1417.00,513.84 L1417.00,513.87 L1417.00,513.90 L1417.00,513.94 L1417.00,513.97 L1417.00,514.00 L1417.00,514.03 L1417.00,515.80" fill="none" stroke="#fb7185" stroke-width="4" stroke-linejoin="round"/>
<text x="1134.5" y="602" fill="#d7e0e9" font-size="15" font-weight="600" text-anchor="middle" >Recall</text>
<text x="0" y="0" fill="#d7e0e9" font-size="15" font-weight="600" text-anchor="middle" transform="translate(800 362.5) rotate(-90)">Precision</text>
<text x="1409" y="505.79999999999995" fill="#9ca9b7" font-size="12" font-weight="400" text-anchor="end" >Random precision baseline  8%</text>
<text x="750" y="672" fill="#aab6c3" font-size="14" font-weight="400" text-anchor="middle" >Higher curves and larger areas are better. ROC favors the upper-left; PR favors staying high as recall moves right.</text>
</svg>